<svg width="800" height="600" viewBox="0 0 800 600" xmlns="http://www.w3.org/2000/svg">
  <defs>
    <linearGradient id="wheelGradient" x1="0%" y1="0%" x2="100%" y2="100%">
      <stop offset="0%" style="stop-color:#2563eb;stop-opacity:0.1" />
      <stop offset="100%" style="stop-color:#1d4ed8;stop-opacity:0.2" />
    </linearGradient>
    <pattern id="polishPattern" width="40" height="40" patternUnits="userSpaceOnUse">
      <path d="M0,20 Q10,0 20,20 T40,20" stroke="#1d4ed8" fill="none" opacity="0.2" />
      <path d="M0,20 Q10,40 20,20 T40,20" stroke="#1d4ed8" fill="none" opacity="0.2" />
    </pattern>
  </defs>
  
  <!-- Фон -->
  <rect width="800" height="600" fill="#f8fafc" />
  
  <!-- Абразивный круг -->
  <g transform="translate(400,300)">
    <!-- Внешний круг -->
    <circle cx="0" cy="0" r="200" fill="url(#wheelGradient)" stroke="#2563eb" stroke-width="4" />
    
    <!-- Абразивная поверхность -->
    <circle cx="0" cy="0" r="190" fill="url(#polishPattern)" />
    
    <!-- Внутренний круг -->
    <circle cx="0" cy="0" r="50" fill="#2563eb" />
    
    <!-- Спицы -->
    <g stroke="#2563eb" stroke-width="3">
      <line x1="-180" y1="0" x2="180" y2="0" />
      <line x1="0" y1="-180" x2="0" y2="180" />
      <line x1="-127" y1="-127" x2="127" y2="127" />
      <line x1="127" y1="-127" x2="-127" y2="127" />
    </g>
  </g>
  
  <!-- Тени и блики -->
  <g opacity="0.1">
    <circle cx="400" cy="300" r="200" fill="#000" transform="translate(10,10)" />
    <circle cx="400" cy="300" r="190" fill="#fff" transform="translate(-5,-5)" />
  </g>
</svg> 