<svg width="800" height="600" viewBox="0 0 800 600" xmlns="http://www.w3.org/2000/svg">
  <defs>
    <linearGradient id="machineGradient" x1="0%" y1="0%" x2="100%" y2="100%">
      <stop offset="0%" style="stop-color:#2563eb;stop-opacity:0.1" />
      <stop offset="100%" style="stop-color:#1d4ed8;stop-opacity:0.2" />
    </linearGradient>
  </defs>
  
  <!-- Фон -->
  <rect width="800" height="600" fill="#f8fafc" />
  
  <!-- Станок -->
  <g transform="translate(400,300)">
    <!-- Основание -->
    <rect x="-200" y="100" width="400" height="50" fill="#2563eb" rx="5" />
    
    <!-- Колонна -->
    <rect x="-30" y="-150" width="60" height="250" fill="#1d4ed8" />
    
    <!-- Режущая головка -->
    <g transform="translate(0,-150)">
      <!-- Корпус -->
      <rect x="-80" y="-40" width="160" height="80" fill="url(#machineGradient)" stroke="#2563eb" stroke-width="2" rx="10" />
      
      <!-- Шпиндель -->
      <circle cx="0" cy="0" r="30" fill="#2563eb" />
      
      <!-- Режущий диск -->
      <g>
        <circle cx="0" cy="0" r="40" fill="none" stroke="#1d4ed8" stroke-width="2" />
        <line x1="-40" y1="0" x2="40" y2="0" stroke="#1d4ed8" stroke-width="2" />
        <line x1="0" y1="-40" x2="0" y2="40" stroke="#1d4ed8" stroke-width="2" />
      </g>
    </g>
    
    <!-- Стол -->
    <rect x="-150" y="50" width="300" height="20" fill="#2563eb" rx="2" />
    
    <!-- Элементы управления -->
    <g transform="translate(100,-100)">
      <circle cx="0" cy="0" r="15" fill="#1d4ed8" />
      <rect x="-5" y="-20" width="10" height="20" fill="#1d4ed8" />
    </g>
    
    <!-- Защитный кожух -->
    <path d="M-100,-150 Q0,-200 100,-150" fill="none" stroke="#1d4ed8" stroke-width="2" stroke-dasharray="5,5" />
  </g>
  
  <!-- Тени -->
  <g opacity="0.1">
    <rect x="200" y="350" width="400" height="50" fill="#000" transform="translate(10,10)" />
    <rect x="370" y="100" width="60" height="250" fill="#000" transform="translate(5,5)" />
  </g>
</svg> 